<?xml version="1.0" encoding="utf-8"?>
<!-- Generator: Adobe Illustrator 23.0.6, SVG Export Plug-In . SVG Version: 6.00 Build 0)  -->
<svg version="1.1" id="Layer_1" xmlns="http://www.w3.org/2000/svg" xmlns:xlink="http://www.w3.org/1999/xlink" x="0px" y="0px"
	 viewBox="0 0 517 150.1" style="enable-background:new 0 0 517 150.1;" xml:space="preserve">
<style type="text/css">
	.st0{fill:#2E353A;}
	.st1{font-family:'Impact';}
	.st2{font-size:75px;}
	.st3{fill:#366CB5;}
	.st4{fill:#40BAEC;}
	.st5{fill:#3F63AE;}
	.st6{fill:#4275BA;}
	.st7{fill:#44A9DF;}
	.st8{fill:#4CC8ED;}
	.st9{fill:#4271B7;}
	.st10{fill:none;stroke:#2E353A;stroke-miterlimit:10;}
</style>
<g>
	<text transform="matrix(1 0 0 1 202.4435 74.8368)" class="st0 st1 st2">DAILY</text>
	<text transform="matrix(1 0 0 1 202.4435 141.8368)" class="st0 st1 st2">DISCOUNT</text>
	<g>
		<path class="st3" d="M60.6,21.5L60.6,21.5z"/>
		<path class="st0" d="M147.4,15.9H56.1L15.4,57.5l86.4,85.9l86.3-85.9L147.4,15.9z M130,39.3c1.5,0,2.8,1.3,2.8,2.8
			c0,1.6-1.3,2.8-2.8,2.8c-1.6,0-2.8-1.3-2.8-2.8C127.2,40.5,128.5,39.3,130,39.3z M101.8,127.7l-0.2,0.2l-0.1-0.1L30.8,57.4
			l29.9-30.6h66.4v9.6l-9.7,8.1c-0.6,0.5-0.9,1.2-0.9,1.9v23.4c0,1.4,1.1,2.5,2.5,2.5h21.8c1.4,0,2.5-1.1,2.5-2.5V46.1
			c-0.1-0.6-0.4-1.2-0.9-1.6l-5.1-4.3l-0.1,0l-4.5-3.9v-9.6h10l29.9,30.6l-0.1,0.1L101.8,127.7z"/>
		<path class="st4" d="M132.8,42.1c0,1.6-1.3,2.8-2.8,2.8c-1.6,0-2.8-1.3-2.8-2.8c0-1.6,1.3-2.8,2.8-2.8S132.8,40.6,132.8,42.1z"/>
		<polygon class="st4" points="142.7,26.7 137.2,40.2 132.7,36.3 132.7,26.7 		"/>
		<path class="st5" d="M172.5,57.4l-70.7,70.3l-0.2,0.2l22.6-55.6h16.6c1.4,0,2.5-1.1,2.5-2.5V57.4H172.5z"/>
		<path class="st6" d="M172.6,57.3l-0.1,0.1h-29.2V46.1c-0.1-0.6-0.4-1.2-0.9-1.6l-5.1-4.3l-0.1,0l5.5-13.5L172.6,57.3z"/>
		<path class="st4" d="M127.1,26.8v9.6l-9.7,8.1c-0.6,0.5-0.9,1.2-0.9,1.9v11H73.1L60.7,26.8H127.1z"/>
		<polygon class="st7" points="101.6,127.9 101.5,127.8 30.8,57.4 73.1,57.4 		"/>
		<polygon class="st8" points="73.1,57.4 30.8,57.4 60.7,26.8 		"/>
		<path class="st9" d="M124.2,72.3l-22.6,55.6L73.1,57.4h43.4v12.4c0,1.4,1.1,2.5,2.5,2.5H124.2z"/>
		<polyline class="st10" points="143.3,57.4 130.2,57.4 116.5,57.4 		"/>
		<polyline class="st10" points="137.2,40.2 130.2,57.4 124.2,72.3 		"/>
	</g>
</g>
</svg>
